<?xml version="1.0" encoding="utf-8"?>
<rss version="2.0">
	<channel>
		<title>葡萄 Torrents</title>
		<link><![CDATA[https://pt.sjtu.edu.cn]]></link>
		<description><![CDATA[Latest torrents from 葡萄 - Free Share, Join us! 人人为我，我为人人]]></description>
		<language>zh-cn</language>
		<copyright>Copyright (c) 葡萄 2009-2018, all rights reserved</copyright>
		<managingEditor>noreply@pt.sjtu.edu.cn (葡萄 Admin)</managingEditor>
		<webMaster>noreply@pt.sjtu.edu.cn (葡萄 Webmaster)</webMaster>
		<pubDate>Sun, 12 Aug 2018 13:24:18 +0800</pubDate>
		<generator>Nexus Project RSS Generator</generator>
		<docs><![CDATA[http://www.rssboard.org/rss-specification]]></docs>
		<ttl>60</ttl>
		<image>
			<url><![CDATA[https://pt.sjtu.edu.cn/pic/rss_logo.jpg]]></url>
			<title>葡萄 Torrents</title>
			<link><![CDATA[https://pt.sjtu.edu.cn]]></link>
			<width>100</width>
			<height>100</height>
			<description>葡萄 Torrents</description>
		</image>
		<item>
			<title><![CDATA[[的士速递3] Taxi 3 2003 1080p Blu-ray DTS x264-SbR [11.02 GB]]]></title>
			<link>https://pt.sjtu.edu.cn/details.php?id=154348</link>
			<description><![CDATA[<img alt="image" src="https://img3.doubanio.com/view/photo/l_ratio_poster/public/p2529661996.jpg" /><br />
<br />
◎译　　名　的士速递3 / 终极杀阵3<br />
◎片　　名　Taxi 3<br />
◎年　　代　2003<br />
◎产　　地　法国<br />
◎类　　别　喜剧 / 动作 / 犯罪<br />
◎语　　言　法语<br />
◎上映日期　2003-01-29(法国)<br />
◎IMDb评分　5.8/10 from 35727 users<br />
◎IMDb链接　<a class="faqlink" href="http://www.imdb.com/title/tt0295721">http://www.imdb.com/title/tt0295721</a><br />
◎豆瓣评分　7.3/10 from 24687 users<br />
◎豆瓣链接　<a class="faqlink" href="https://movie.douban.com/subject/1308156/">https://movie.douban.com/subject/1308156/</a><br />
◎片　　长　84分钟<br />
◎导　　演　Gérard Krawczyk<br />
◎编　　剧　Luc Besson<br />
◎主　　演　Samy Naceri<br />
　　　　　　Frédéric Diefenthal<br />
　　　　　　Bernard Farcy<br />
　　　　　　白灵<br />
<br />
<br />
◎标　　签　法国 | 喜剧 | 吕克·贝松 | 法国电影 | 动作 | 搞笑 | taxi | 2003<br />
<br />
◎简　　介 &nbsp;<br />
<br />
　　圣诞节期间，一伙盗贼假扮圣诞老人大肆行窃，对此，警察局长吉伯（伯纳尔·法西）决定亲自部署清剿活动，而此时一个混血记者秋（白灵）来到警局采访，时时黏在他身边，处处问寒问暖。<br />
警察艾米（佛瑞德瑞克·迪分索 ）正为案件烦心，不想女友贝特拉捧着怀孕八个月的肚子驾到。艾米和好友丹尼尔（萨米·纳塞利）在出租车里倾诉一夜，原来丹尼尔的女友莉莉也怀孕了。就在他们决定为了爱情收山归心时，犯罪团伙的马脚露到了他们面前。他们一路追击，不想艾米再次跌入垃圾桶。<br />
艾米被犯罪团伙绑架，再次睁眼时，眼前正是那个美丽的混血记者......<br />
<fieldset><legend> 引用 </legend><br />
General<br />
Unique ID : 193527605090713019358879476464513697395 (0x91980F9BCB386EAD99155A99245FC673)<br />
Complete name : Taxi.3.2003.1080p.BluRay.DTS.x264-SbR.mkv<br />
Format : Matroska<br />
Format version : Version 4 / Version 2<br />
File size : 11.0 GiB<br />
Duration : 1h 27mn<br />
Overall bit rate : 18.1 Mbps<br />
Movie name : Taxi 3 (2003) - Release for HDBITS by SbR<br />
Encoded date : UTC 2014-08-02 08:43:33<br />
Writing application : mkvmerge v7.1.0 ('Good Love') 64bit built on Jul 27 2014 13:06:55<br />
Writing library : libebml v1.3.0 + libmatroska v1.4.1<br />
Cover : Yes<br />
DURATION : 01:21:23.749000000<br />
NUMBER_OF_FRAMES : 1356<br />
NUMBER_OF_BYTES : 70618<br />
_STATISTICS_WRITING_APP : mkvmerge v7.1.0 ('Good Love') 64bit built on Jul 27 2014 13:06:55<br />
_STATISTICS_WRITING_DATE_UTC : 2014-08-02 08:43:33<br />
_STATISTICS_TAGS : BPS DURATION NUMBER_OF_FRAMES NUMBER_OF_BYTES<br />
Attachment : Yes<br />
<br />
Video<br />
ID : 1<br />
Format : AVC<br />
Format/Info : Advanced Video Codec<br />
Format profile : High@L4.1<br />
Format settings, CABAC : Yes<br />
Format settings, ReFrames : 5 frames<br />
Codec ID : V_MPEG4/ISO/AVC<br />
Duration : 1h 27mn<br />
Bit rate : 16.2 Mbps<br />
Width : 1 916 pixels<br />
Height : 816 pixels<br />
Display aspect ratio : 2.35:1<br />
Frame rate mode : Constant<br />
Frame rate : 24.000 fps<br />
Color space : YUV<br />
Chroma subsampling : 4:2:0<br />
Bit depth : 8 bits<br />
Scan type : Progressive<br />
Bits/(Pixel*Frame) : 0.431<br />
Stream size : 9.88 GiB (90%)<br />
Title : Release for HDBITS<br />
Writing library : x264 core 142 r2431+42 c69a006 tMod [8-bit@4:2:0 X86_64]<br />
Encoding settings : cabac=1 / ref=5 / deblock=1:-2:-2 / analyse=0x3:0x133 / me=umh / subme=11 / psy=1 / fade_compensate=0.00 / psy_rd=1.00:0.00 / mixed_ref=1 / me_range=32 / chroma_me=1 / trellis=2 / 8x8dct=1 / cqm=0 / deadzone=21,11 / fast_pskip=1 / chroma_qp_offset=-2 / threads=12 / lookahead_threads=3 / sliced_threads=0 / nr=0 / decimate=1 / interlaced=0 / bluray_compat=0 / constrained_intra=0 / fgo=0 / bframes=10 / b_pyramid=2 / b_adapt=2 / b_bias=0 / direct=1 / weightb=1 / open_gop=0 / weightp=2 / keyint=250 / keyint_min=24 / scenecut=40 / intra_refresh=0 / rc_lookahead=60 / rc=crf / mbtree=0 / crf=18.5000 / qcomp=0.60 / qpmin=0:0:0 / qpmax=69:69:69 / qpstep=4 / vbv_maxrate=62500 / vbv_bufsize=78125 / crf_max=0.0 / nal_hrd=none / filler=0 / ip_ratio=1.40 / pb_ratio=1.30 / aq=4:0.80 / aq-sensitivity=11.00 / aq-factor=1.00:1.00:1.00 / aq2=1:0.60 / aq2-sensitivity=9.00 / aq2-factor=1.00:1.00:1.00 / aq3=1:[0.60:0.60]:[0.60:0.60]:[0.60:0.60]:[0.60:0.60] / aq3-sensitivity=10.00 / aq3-factor=[1.00:1.00]:[1.00:1.00]:[1.00:1.00] / aq3-boundary=192:64:24<br />
Language : French<br />
Default : Yes<br />
Forced : No<br />
Color primaries : BT.709<br />
Transfer characteristics : BT.709<br />
Matrix coefficients : BT.709<br />
<br />
Audio<br />
ID : 2<br />
Format : DTS<br />
Format/Info : Digital Theater Systems<br />
Mode : 16<br />
Format settings, Endianness : Big<br />
Codec ID : A_DTS<br />
Duration : 1h 27mn<br />
Bit rate mode : Constant<br />
Bit rate : 1 509 Kbps<br />
Channel(s) : 6 channels<br />
Channel positions : Front: L C R, Side: L R, LFE<br />
Sampling rate : 48.0 KHz<br />
Bit depth : 16 bits<br />
Compression mode : Lossy<br />
Stream size : 943 MiB (8%)<br />
Language : French<br />
Default : Yes<br />
Forced : No<br />
<br />
Text #1<br />
ID : 3<br />
Format : UTF-8<br />
Codec ID : S_TEXT/UTF8<br />
Codec ID/Info : UTF-8 Plain Text<br />
Language : English<br />
Default : Yes<br />
Forced : No<br />
<br />
Text #2<br />
ID : 4<br />
Format : UTF-8<br />
Codec ID : S_TEXT/UTF8<br />
Codec ID/Info : UTF-8 Plain Text<br />
Language : Russian<br />
Default : No<br />
Forced : No<br />
<br />
Menu<br />
00:00:00.000 : en:Chapter 1<br />
00:08:29.833 : en:Chapter 2<br />
00:15:59.833 : en:Chapter 3<br />
00:23:21.000 : en:Chapter 4<br />
00:30:43.333 : en:Chapter 5<br />
00:39:43.166 : en:Chapter 6<br />
00:47:47.500 : en:Chapter 7<br />
00:55:08.916 : en:Chapter 8<br />
01:03:00.666 : en:Chapter 9<br />
01:10:09.291 : en:Chapter 10<br />
01:17:52.125 : en:Chapter 11<br />
01:21:35.708 : en:Chapter 12<br />
</fieldset><br><br />
<br />
x264 [info]: frame I:1128 Avg QP:18.35 size:206440<br />
x264 [info]: frame P:25850 Avg QP:19.35 size:133573<br />
x264 [info]: frame B:98878 Avg QP:21.51 size: 72404<br />
x264 [info]: consecutive B-frames: 1.9% 2.3% 6.6% 16.4% 15.4% 42.0% 8.2% 1.8% 2.8% 1.8% 0.7%<br />
x264 [info]: kb/s:16544.43]]></description>
			<author>anonymous@pt.sjtu.edu.cn (anonymous)</author>
			<category domain="https://pt.sjtu.edu.cn/torrents.php?cat=402">欧美电影</category>
			<comments><![CDATA[https://pt.sjtu.edu.cn/details.php?id=154348&cmtpage=0#startcomments]]></comments>
			<guid isPermaLink="false">6bbdeb93d0758cb96e8006e4ab08a1fa14cb82b1</guid>
			<pubDate>Sun, 12 Aug 2018 09:59:39 +0800</pubDate>
		</item>
		<item>
			<title><![CDATA[[神秘巨星] Secret Superstar 2017 BluRay 720p DD x264-MTeam[5.30 GB]]]></title>
			<link>https://pt.sjtu.edu.cn/details.php?id=154347</link>
			<description><![CDATA[<img alt="image" src="https://m.media-amazon.com/images/M/MV5BM2IzMGIxMDQtNzE3OS00MGZjLTljNzgtMGE2MjAyZThmNjNhXkEyXkFqcGdeQXVyMTExNDQ2MTI@._V1_UX720.jpg" /><br />
◎译　　名　神秘巨星/秘密巨星/隐藏的大明星(台)/打死不离歌星梦(港)<br />
◎片　　名　Secret Superstar<br />
◎年　　代　2017<br />
◎产　　地　印度<br />
◎类　　别　剧情/音乐<br />
◎语　　言　印地语/英语<br />
◎上映日期　2017-10-18(印度)/2018-01-19(中国大陆)<br />
◎IMDb评分 &nbsp;8.1/10 from 12,610 users<br />
◎IMDb链接 &nbsp;<a class="faqlink" href="http://www.imdb.com/title/tt6108090/">http://www.imdb.com/title/tt6108090/</a><br />
◎豆瓣评分　7.7/10 from 231,649 users<br />
◎豆瓣链接　<a class="faqlink" href="https://movie.douban.com/subject/26942674/">https://movie.douban.com/subject/26942674/</a><br />
◎片　　长　150分钟<br />
◎导　　演　阿德瓦·香登 Advait Chandan<br />
◎主　　演　塞伊拉·沃西 Zaira Wasim<br />
　　　　　　梅·维贾 Meher Vij<br />
　　　　　　阿米尔·汗 Aamir Khan<br />
　　　　　　拉杰·阿晶 Raj Arjun<br />
　　　　　　提斯·沙马 Tirth Sharma<br />
　　　　　　卡比尔·谢赫 Kabir Shaikh<br />
　　　　　　法鲁克·贾法尔 Farrukh Jaffar<br />
　　　　　　马努杰·沙玛 Manuj Sharma<br />
　　　　　　莫娜·安伯加卡尔 Mona Ambegaonkar<br />
　　　　　　尼基塔·阿南德 Nikita Anand<br />
　　　　　　尚 Shaan<br />
　　　　　　莫纳利·塔库尔 Monali Thakur<br />
<br />
◎简　　介<br />
<br />
　　少女伊西亚（塞伊拉·沃西 Zaira Wasim 饰）拥有着一副天生的好嗓子，对唱歌充满了热爱的她做梦都想成为一名歌星。然而，伊西亚生活在一个不自由的家庭之中，母亲娜吉玛（梅·维贾 Meher Vij 饰）常常遭到性格爆裂独断专横的父亲法鲁克（拉杰·阿晶 Raj Arjun 饰）的拳脚相向，伊西亚知道，想让父亲支持自己的音乐梦想是完全不可能的事情。<br />
　　某日，母亲卖掉了金项链给伊西亚买了一台电脑，很快，伊西亚便发现，虽然无法再现实里实现梦想，但是网络中存在着更广阔的舞台。伊西亚录制了一段蒙着脸自弹自唱的视屏上传到了优兔网上，没想到收获了异常热烈的反响，著名音乐人夏克提（阿米尔·汗 Aamir Khan 饰）亦向她抛出了橄榄枝。<br />
<br />
<font face='Lucida Console'><br><div class="codetop">代码</div><div class="codemain"><br />
Secret.Superstar.2017.BluRay.720p.DD.x264-MTeam<br />
RELEASE DATE....: 8/11/2018<br />
THEATRE DATE....: 2017<br />
iMDB URL........: http://www.imdb.com/title/tt6108090/<br />
iMDB RATiNG.....: 8.1/10 12,634 votes<br />
GENRE...........: Drama, Music<br />
SOURCE .........: Secret Superstar 2017 HK Blu-ray 1080p AVC TrueHD 5.1-TTG<br />
ViDEO BiTRATE...: x264 L4.1 High @ crf 17<br />
FRAME RATE......: 24 fps<br />
AUDiO 1.........: Hindi DD 5.1 640 kbps<br />
RUNTiME.........: 2:30:08.208 (h:m:s)<br />
ASPECT RATiO....: 2.39 : 1<br />
RESOLUTiON......: 1280 X 536<br />
SUBTiTLES.......: chi/eng(sup)<br />
FilE SiZE.......: 5.30G<br />
ENCODER.........: MTeam<br />
<br />
x264 [info]: frame I:2051  Avg QP:13.80  size: 93173<br />
x264 [info]: frame P:44931 Avg QP:15.41  size: 45330<br />
x264 [info]: frame B:169062 Avg QP:16.98  size: 16056<br />
</div><br></font>]]></description>
			<author>anonymous@pt.sjtu.edu.cn (anonymous)</author>
			<category domain="https://pt.sjtu.edu.cn/torrents.php?cat=403">亚洲电影</category>
			<comments><![CDATA[https://pt.sjtu.edu.cn/details.php?id=154347&cmtpage=0#startcomments]]></comments>
			<guid isPermaLink="false">e202b86a5a612a2ee5a2e6fb4060538aa504bd92</guid>
			<pubDate>Sun, 12 Aug 2018 07:30:59 +0800</pubDate>
		</item>
		<item>
			<title><![CDATA[[神秘巨星] Secret Superstar 2017 BluRay 1080p TrueHD 5.1 x264-MTeam[14.22 GB]]]></title>
			<link>https://pt.sjtu.edu.cn/details.php?id=154346</link>
			<description><![CDATA[<img alt="image" src="https://m.media-amazon.com/images/M/MV5BM2IzMGIxMDQtNzE3OS00MGZjLTljNzgtMGE2MjAyZThmNjNhXkEyXkFqcGdeQXVyMTExNDQ2MTI@._V1_UX720.jpg" /><br />
◎译　　名　神秘巨星/秘密巨星/隐藏的大明星(台)/打死不离歌星梦(港)<br />
◎片　　名　Secret Superstar<br />
◎年　　代　2017<br />
◎产　　地　印度<br />
◎类　　别　剧情/音乐<br />
◎语　　言　印地语/英语<br />
◎上映日期　2017-10-18(印度)/2018-01-19(中国大陆)<br />
◎IMDb评分 &nbsp;8.1/10 from 12,610 users<br />
◎IMDb链接 &nbsp;<a class="faqlink" href="http://www.imdb.com/title/tt6108090/">http://www.imdb.com/title/tt6108090/</a><br />
◎豆瓣评分　7.7/10 from 231,649 users<br />
◎豆瓣链接　<a class="faqlink" href="https://movie.douban.com/subject/26942674/">https://movie.douban.com/subject/26942674/</a><br />
◎片　　长　150分钟<br />
◎导　　演　阿德瓦·香登 Advait Chandan<br />
◎主　　演　塞伊拉·沃西 Zaira Wasim<br />
　　　　　　梅·维贾 Meher Vij<br />
　　　　　　阿米尔·汗 Aamir Khan<br />
　　　　　　拉杰·阿晶 Raj Arjun<br />
　　　　　　提斯·沙马 Tirth Sharma<br />
　　　　　　卡比尔·谢赫 Kabir Shaikh<br />
　　　　　　法鲁克·贾法尔 Farrukh Jaffar<br />
　　　　　　马努杰·沙玛 Manuj Sharma<br />
　　　　　　莫娜·安伯加卡尔 Mona Ambegaonkar<br />
　　　　　　尼基塔·阿南德 Nikita Anand<br />
　　　　　　尚 Shaan<br />
　　　　　　莫纳利·塔库尔 Monali Thakur<br />
<br />
◎简　　介<br />
<br />
　　少女伊西亚（塞伊拉·沃西 Zaira Wasim 饰）拥有着一副天生的好嗓子，对唱歌充满了热爱的她做梦都想成为一名歌星。然而，伊西亚生活在一个不自由的家庭之中，母亲娜吉玛（梅·维贾 Meher Vij 饰）常常遭到性格爆裂独断专横的父亲法鲁克（拉杰·阿晶 Raj Arjun 饰）的拳脚相向，伊西亚知道，想让父亲支持自己的音乐梦想是完全不可能的事情。<br />
　　某日，母亲卖掉了金项链给伊西亚买了一台电脑，很快，伊西亚便发现，虽然无法再现实里实现梦想，但是网络中存在着更广阔的舞台。伊西亚录制了一段蒙着脸自弹自唱的视屏上传到了优兔网上，没想到收获了异常热烈的反响，著名音乐人夏克提（阿米尔·汗 Aamir Khan 饰）亦向她抛出了橄榄枝。<br />
<br />
<font face='Lucida Console'><br><div class="codetop">代码</div><div class="codemain"><br />
Secret.Superstar.2017.BluRay.1080p.TrueHD.5.1.x264-MTeam<br />
RELEASE DATE....: 8/11/2018<br />
THEATRE DATE....: 2017<br />
iMDB URL........: http://www.imdb.com/title/tt6108090/<br />
iMDB RATiNG.....: 8.1/10 12,634 votes<br />
GENRE...........: Drama, Music<br />
SOURCE .........: Secret Superstar 2017 HK Blu-ray 1080p AVC TrueHD 5.1-TTG<br />
ViDEO BiTRATE...: x264 L4.1 High @ crf 18<br />
FRAME RATE......: 24 fps<br />
AUDiO 1.........: Hindi TrueHD 5.1 3846 kbps<br />
AUDiO 2.........: Hindi DD 5.1 640 kbps<br />
RUNTiME.........: 2:30:08.208 (h:m:s)<br />
ASPECT RATiO....: 2.39 : 1<br />
RESOLUTiON......: 1920 X 804<br />
SUBTiTLES.......: chi/eng(sup)<br />
FilE SiZE.......: 14.2G<br />
ENCODER.........: MTeam<br />
<br />
x264 [info]: frame I:1917  Avg QP:14.30  size:159667<br />
x264 [info]: frame P:43488 Avg QP:15.80  size: 95378<br />
x264 [info]: frame B:170639 Avg QP:17.50  size: 37340<br />
</div><br></font>]]></description>
			<author>anonymous@pt.sjtu.edu.cn (anonymous)</author>
			<category domain="https://pt.sjtu.edu.cn/torrents.php?cat=403">亚洲电影</category>
			<comments><![CDATA[https://pt.sjtu.edu.cn/details.php?id=154346&cmtpage=0#startcomments]]></comments>
			<guid isPermaLink="false">7f7b7f17b01a90989eae03e1199cfaeca87aae9a</guid>
			<pubDate>Sun, 12 Aug 2018 07:29:56 +0800</pubDate>
		</item>
		<item>
			<title><![CDATA[[的士速递5] Taxi 5 2018 1080p Blu-ray DTS x264-PuTao[11.36 GB]]]></title>
			<link>https://pt.sjtu.edu.cn/details.php?id=154342</link>
			<description><![CDATA[<img alt="image" src="https://pt.sjtu.edu.cn/picbucket/106387_153400051962.jpg" /><br />
◎译　　名　的士速递5/终极杀阵5(台)/出租车5<br />
◎片　　名　Taxi 5<br />
◎年　　代　2018<br />
◎产　　地　法国<br />
◎类　　别　喜剧/动作/犯罪<br />
◎语　　言　法语/意大利语<br />
◎上映日期　2018-04-11(法国)/2018-08-03(中国大陆)<br />
◎IMDb评分 &nbsp;5.0/10 from 1,864 users<br />
◎IMDb链接 &nbsp;<a class="faqlink" href="http://www.imdb.com/title/tt7238392/">http://www.imdb.com/title/tt7238392/</a><br />
◎豆瓣评分　5.7/10 from 5,763 users<br />
◎豆瓣链接　<a class="faqlink" href="https://movie.douban.com/subject/27615564/">https://movie.douban.com/subject/27615564/</a><br />
◎片　　长　100分钟(中国大陆)/102分钟<br />
◎导　　演　弗兰克·盖思堂彼得 Franck Gastambide<br />
◎主　　演　弗兰克·盖思堂彼得 Franck Gastambide<br />
　　　　　　马利克·班泽拉 Malik Bentalha<br />
　　　　　　伯纳尔·法西 Bernard Farcy<br />
　　　　　　塞尔维托·埃斯波西多 Salvatore Esposito<br />
　　　　　　萨巴纳·奥扎尼 Sabrina Ouazani<br />
　　　　　　爱德华·蒙多特 Edouard Montoute<br />
　　　　　　朗齐·贝迪亚 Ramzy Bedia<br />
　　　　　　茂萨·马斯克里 Moussa Maaskri<br />
　　　　　　夏洛特·加布里斯 Charlotte Gabris<br />
<br />
◎简　　介<br />
<br />
　　巴黎警官西尔万(弗兰克·盖思堂彼得 饰)因执行任务的方式过于激进,被调任马赛 社区警局。赴任第一天,便遇到意大利超跑帮抢劫珠宝,劫匪驾驶着法拉利风驰电 掣,让西尔万和“各怀绝技”的警员们“望尘莫及”、出尽洋相。正当西尔万一筹 莫展之际,他结识了憨厚莽撞的出租车司机埃迪(马利克·班泽拉 饰)。两人毫无默 契,却要合力抓捕疑犯,一场状况频出、笑料横行的猫鼠游戏即刻展开......<br />
<br />
<br />
<br />
<font face='Courier New'><br><div class="codetop">代码</div><div class="codemain"><br />
General Information:<br />
RELEASE DATE...: 08/11/2018<br />
RUNTiME........: 01:41:54.000(h:m:s)<br />
ViDEO BiTRATE..: x264 CRF L4.1 High @ 14.4 Mbps<br />
FRAMERATE......: 24 fps<br />
RESOLUTiON.....: 1920x804<br />
AUDiO..........: French DTS 5.1 @ 1509 Kbps<br />
SUBTiTLES......: Fre, Chs, Cht<br />
CHARPTER.......: Included<br />
SOURCE.........: Taxi 5 2018 1080p Blu-ray AVC TrueHD 7.1-DIY@OurBits (Thanks!)<br />
ENCODER........: PuTaoSeed<br />
<br />
x264 LOG:<br />
x264 [info]: frame I:1808  Avg QP:14.90  size:183015<br />
x264 [info]: frame P:35500 Avg QP:16.48  size:115292<br />
x264 [info]: frame B:109427 Avg QP:17.57  size: 59975<br />
x264 [info]: consecutive B-frames:  5.3%  3.8%  8.9% 15.9% 10.6% 51.9%  2.7%  0.2%  0.3%  0.1%  0.2%<br />
encoded 146735 frames, 5.93 fps, 14375.77 kb/s<br />
</div><br></font>]]></description>
			<author>anonymous@pt.sjtu.edu.cn (anonymous)</author>
			<category domain="https://pt.sjtu.edu.cn/torrents.php?cat=402">欧美电影</category>
			<comments><![CDATA[https://pt.sjtu.edu.cn/details.php?id=154342&cmtpage=0#startcomments]]></comments>
			<guid isPermaLink="false">3bb81ed421061d4ac86b5e0bd97c0114f0187c9f</guid>
			<pubDate>Sat, 11 Aug 2018 23:26:18 +0800</pubDate>
		</item>
		<item>
			<title><![CDATA[[的士速递5] Taxi 5 2018 720p Blu-ray DD5.1 x264-PuTao[5.22 GB]]]></title>
			<link>https://pt.sjtu.edu.cn/details.php?id=154340</link>
			<description><![CDATA[<img alt="image" src="https://pt.sjtu.edu.cn/picbucket/106387_153400051962.jpg" /><br />
◎译　　名　的士速递5/终极杀阵5(台)/出租车5<br />
◎片　　名　Taxi 5<br />
◎年　　代　2018<br />
◎产　　地　法国<br />
◎类　　别　喜剧/动作/犯罪<br />
◎语　　言　法语/意大利语<br />
◎上映日期　2018-04-11(法国)/2018-08-03(中国大陆)<br />
◎IMDb评分 &nbsp;5.0/10 from 1,864 users<br />
◎IMDb链接 &nbsp;<a class="faqlink" href="http://www.imdb.com/title/tt7238392/">http://www.imdb.com/title/tt7238392/</a><br />
◎豆瓣评分　5.7/10 from 5,763 users<br />
◎豆瓣链接　<a class="faqlink" href="https://movie.douban.com/subject/27615564/">https://movie.douban.com/subject/27615564/</a><br />
◎片　　长　100分钟(中国大陆)/102分钟<br />
◎导　　演　弗兰克·盖思堂彼得 Franck Gastambide<br />
◎主　　演　弗兰克·盖思堂彼得 Franck Gastambide<br />
　　　　　　马利克·班泽拉 Malik Bentalha<br />
　　　　　　伯纳尔·法西 Bernard Farcy<br />
　　　　　　塞尔维托·埃斯波西多 Salvatore Esposito<br />
　　　　　　萨巴纳·奥扎尼 Sabrina Ouazani<br />
　　　　　　爱德华·蒙多特 Edouard Montoute<br />
　　　　　　朗齐·贝迪亚 Ramzy Bedia<br />
　　　　　　茂萨·马斯克里 Moussa Maaskri<br />
　　　　　　夏洛特·加布里斯 Charlotte Gabris<br />
<br />
◎简　　介<br />
<br />
　　巴黎警官西尔万(弗兰克·盖思堂彼得 饰)因执行任务的方式过于激进,被调任马赛 社区警局。赴任第一天,便遇到意大利超跑帮抢劫珠宝,劫匪驾驶着法拉利风驰电 掣,让西尔万和“各怀绝技”的警员们“望尘莫及”、出尽洋相。正当西尔万一筹 莫展之际,他结识了憨厚莽撞的出租车司机埃迪(马利克·班泽拉 饰)。两人毫无默 契,却要合力抓捕疑犯,一场状况频出、笑料横行的猫鼠游戏即刻展开......<br />
<br />
<br />
<br />
<font face='Courier New'><br><div class="codetop">代码</div><div class="codemain"><br />
General Information:<br />
RELEASE DATE...: 08/11/2018<br />
RUNTiME........: 01:41:54.000(h:m:s)<br />
ViDEO BiTRATE..: x264 CRF L4.1 High @ 6631 kbps<br />
FRAMERATE......: 24 fps<br />
RESOLUTiON.....: 1280x536<br />
AUDiO..........: French DD 5.1 @ 640 Kbps<br />
SUBTiTLES......: Fre, Chs, Cht<br />
CHARPTER.......: Included<br />
SOURCE.........: Taxi 5 2018 1080p Blu-ray AVC TrueHD 7.1-DIY@OurBits (Thanks!)<br />
ENCODER........: PuTaoSeed<br />
<br />
x264 LOG:<br />
x264 [info]: frame I:1748  Avg QP:14.58  size:103029<br />
x264 [info]: frame P:36232 Avg QP:16.37  size: 54123<br />
x264 [info]: frame B:108755 Avg QP:17.03  size: 26906<br />
x264 [info]: consecutive B-frames:  5.2%  3.8%  9.0% 22.4% 16.2% 35.5%  5.1%  1.3%  0.8%  0.3%  0.1%  0.1%  encoded 146735 frames, 10.31 fps, 6630.40 kb/s<br />
</div><br></font>]]></description>
			<author>anonymous@pt.sjtu.edu.cn (anonymous)</author>
			<category domain="https://pt.sjtu.edu.cn/torrents.php?cat=402">欧美电影</category>
			<comments><![CDATA[https://pt.sjtu.edu.cn/details.php?id=154340&cmtpage=0#startcomments]]></comments>
			<guid isPermaLink="false">412294babf35a6c907ccdcd7d0c7bb12e6d85e39</guid>
			<pubDate>Sat, 11 Aug 2018 23:25:29 +0800</pubDate>
		</item>
		<item>
			<title><![CDATA[[生死狙击 第三季 第8集] Shooter S03E08 720p HDTV x264-aAF[823.22 MB]]]></title>
			<link>https://pt.sjtu.edu.cn/details.php?id=154325</link>
			<description><![CDATA[<img alt="image" src="https://i.loli.net/2018/06/22/5b2c6c2f1c33a.jpg" /><br />
<br />
◎译　　名　生死狙击 第三季<br />
◎片　　名　Shooter Season 3<br />
◎年　　代　2018<br />
◎产　　地　美国<br />
◎类　　别　剧情/动作<br />
◎语　　言　英语<br />
◎上映日期　2018-06-21(美国)<br />
◎IMDb评分 &nbsp;8.3/10 from 192 users<br />
◎IMDb链接 &nbsp;<a class="faqlink" href="http://www.imdb.com/title/tt7846292/">http://www.imdb.com/title/tt7846292/</a><br />
◎豆瓣评分　7.6/10 from 121 users<br />
◎豆瓣链接　<a class="faqlink" href="https://movie.douban.com/subject/27598384/">https://movie.douban.com/subject/27598384/</a><br />
◎集　　数　13<br />
◎片　　长　60分钟<br />
◎导　　演　杰米·雷诺索 Jaime Reynoso<br />
◎主　　演　瑞恩·菲利普 Ryan Phillippe<br />
　　　　　　珊特尔·范圣滕 Shantel VanSanten<br />
　　　　　　辛希亚·阿戴-罗宾森 Cynthia Addai-Robinson<br />
　　　　　　杰西·布拉德福特 Jesse Bradford<br />
　　　　　　乔什·斯图沃特 Josh Stewart<br />
　　　　　　欧玛·艾普斯 Omar Epps<br />
　　　　　　John Marshall Jones<br />
　　　　　　德里克·菲利普斯 Derek Phillips<br />
　　　　　　Tait Blum<br />
　　　　　　Michael Dempsey<br />
　　　　　　维布尔·弗利茨杰拉德 Wilbur Fitzgerald<br />
　　　　　　克里斯·格林 Chris Greene<br />
　　　　　　格兰特·哈维 Grant Harvey<br />
　　　　　　琳赛·普尔斯菲 Lindsay Pulsipher<br />
　　　　　　Matt Shallenberger<br />
　　　　　　克里斯汀思莱蒙 Kristin Slaysman<br />
　　　　　　哈利·哈姆林 Harry Hamlin<br />
　　　　　　Al Coronel<br />
<br />
◎简　　介<br />
<br />
　　《#生死狙击# Shooter》主演Ryan Phillippe在社交媒体宣布自己康复后不久，USA立即宣布续订剧集第三季，新闻指第三季会是13集。<br />
　　在年中，Ryan Phillippe因为遇上车祸而断脚，当时剧组只拍到第九集的一半，在没有主演下无法继续拍摄，因此宣布删减两集，令第二季仅8集；报导指第三季会解决上季的事件，然后开启新故事。<br />
<br />
<fieldset><legend> 引用 </legend><font face='Courier New'>File Name &nbsp; &nbsp; &nbsp; &nbsp; : Shooter.S03E08.720p.HDTV.x264-aAF<br />
Format &nbsp; &nbsp; &nbsp; &nbsp; &nbsp; &nbsp;: Matroska<br />
File Size &nbsp; &nbsp; &nbsp; &nbsp; : 823 MiB<br />
Duration &nbsp; &nbsp; &nbsp; &nbsp; &nbsp;: 41 min<br />
Video Codec &nbsp; &nbsp; &nbsp; : AVC High@L4.1 @ 2 356 kb/s<br />
Framerate &nbsp; &nbsp; &nbsp; &nbsp; : 23.976 fps<br />
Resolution &nbsp; &nbsp; &nbsp; &nbsp;: 1280x718<br />
Audio &nbsp; &nbsp; &nbsp; &nbsp; &nbsp; &nbsp; : AC-3 6 channels @ 384 kb/s<br />
<br />
</font></fieldset><br><br />
]]></description>
			<author>anonymous@pt.sjtu.edu.cn (anonymous)</author>
			<category domain="https://pt.sjtu.edu.cn/torrents.php?cat=410">欧美电视剧</category>
			<comments><![CDATA[https://pt.sjtu.edu.cn/details.php?id=154325&cmtpage=0#startcomments]]></comments>
			<guid isPermaLink="false">b91f6f7c23efe5d1c34b3ed0143c0b1bf4f2201d</guid>
			<pubDate>Fri, 10 Aug 2018 22:59:15 +0800</pubDate>
		</item>
		<item>
			<title><![CDATA[[黄石 第一季 第07集] Yellowstone 2018 S01E07 A Monster Is Among Us 1080p AMZN WEB-DL 2.0 H.264-NTb[2.42 GB]]]></title>
			<link>https://pt.sjtu.edu.cn/details.php?id=154320</link>
			<description><![CDATA[<img alt="image" src="https://image.tmdb.org/t/p/original/lcmDSMFa6NVjeCg9IO9KCxErRj2.jpg" /><br />
<br />
◎译　　名　黄石公园/黄石<br />
◎片　　名　Yellowstone<br />
◎年　　代　2018<br />
◎产　　地　美国<br />
◎类　　别　剧情<br />
◎上映日期　2018-06-20(美国)<br />
◎IMDb评分 &nbsp;8.6/10 from 419 users<br />
◎IMDb链接 &nbsp;<a class="faqlink" href="http://www.imdb.com/title/tt4236770/">http://www.imdb.com/title/tt4236770/</a><br />
◎豆瓣评分　/10 from 0 users<br />
◎豆瓣链接　<a class="faqlink" href="https://movie.douban.com/subject/27036727/">https://movie.douban.com/subject/27036727/</a><br />
◎集　　数　10<br />
◎导　　演　泰勒·谢里丹 Taylor Sheridan<br />
◎主　　演　凯文·科斯特纳 Kevin Costner<br />
　　　　　　凯尔西·周 &nbsp;Kelsey Chow<br />
　　　　　　韦斯·本特利 Wes Bentley<br />
　　　　　　吉尔·伯明翰 Gil Birmingham<br />
　　　　　　伊恩·鲍汉 Ian Bohen<br />
　　　　　　卢克·葛莱姆斯 Luke Grimes<br />
　　　　　　科尔·豪瑟 Cole Hauser<br />
　　　　　　凯利·蕾莉 Kelly Reilly<br />
　　　　　　丹宁 理查兹 Denim Richards<br />
　　　　　　戴夫·安纳布尔 Dave Annable<br />
　　　　　　吉尔·亨内斯 Jill Hennessy<br />
　　　　　　格瑞辰·摩尔 Gretchen Mol<br />
　　　　　　帕特里克·圣埃斯普利特 Patrick St. Esprit<br />
　　　　　　Raquel Conner<br />
　　　　　　Jefferson White<br />
<br />
◎简　　介<br />
<br />
　　凯文·科斯特纳确认出演泰勒·谢里单自编自导的美剧《黄石公园》。影片讲述达顿家族的大农场因紧邻黄石公园而引起的边界纷争。科斯特纳饰演达顿家族大家长约翰·达顿。同时，他还将与谢里单、哈维·韦恩斯坦、大卫·格拉瑟一起担任执行制片人。《黄石公园》一共十集，将于今秋开拍，明夏播出。<br />
<br />
<fieldset><legend> 引用 </legend>Video<br />
ID &nbsp; &nbsp; &nbsp; &nbsp; &nbsp; &nbsp; &nbsp; &nbsp; &nbsp; &nbsp; &nbsp; &nbsp; &nbsp; &nbsp; &nbsp; &nbsp; &nbsp; &nbsp; &nbsp; : 1<br />
Format &nbsp; &nbsp; &nbsp; &nbsp; &nbsp; &nbsp; &nbsp; &nbsp; &nbsp; &nbsp; &nbsp; &nbsp; &nbsp; &nbsp; &nbsp; &nbsp; &nbsp; : AVC<br />
Format/Info &nbsp; &nbsp; &nbsp; &nbsp; &nbsp; &nbsp; &nbsp; &nbsp; &nbsp; &nbsp; &nbsp; &nbsp; &nbsp; &nbsp; &nbsp;: Advanced Video Codec<br />
Format profile &nbsp; &nbsp; &nbsp; &nbsp; &nbsp; &nbsp; &nbsp; &nbsp; &nbsp; &nbsp; &nbsp; &nbsp; &nbsp; : High@L4<br />
Format settings &nbsp; &nbsp; &nbsp; &nbsp; &nbsp; &nbsp; &nbsp; &nbsp; &nbsp; &nbsp; &nbsp; &nbsp; &nbsp;: CABAC / 4 Ref Frames<br />
Format settings, CABAC &nbsp; &nbsp; &nbsp; &nbsp; &nbsp; &nbsp; &nbsp; &nbsp; &nbsp; : Yes<br />
Format settings, RefFrames &nbsp; &nbsp; &nbsp; &nbsp; &nbsp; &nbsp; &nbsp; : 4 frames<br />
Codec ID &nbsp; &nbsp; &nbsp; &nbsp; &nbsp; &nbsp; &nbsp; &nbsp; &nbsp; &nbsp; &nbsp; &nbsp; &nbsp; &nbsp; &nbsp; &nbsp; : V_MPEG4/ISO/AVC<br />
Duration &nbsp; &nbsp; &nbsp; &nbsp; &nbsp; &nbsp; &nbsp; &nbsp; &nbsp; &nbsp; &nbsp; &nbsp; &nbsp; &nbsp; &nbsp; &nbsp; : 1 h 32 min<br />
Bit rate mode &nbsp; &nbsp; &nbsp; &nbsp; &nbsp; &nbsp; &nbsp; &nbsp; &nbsp; &nbsp; &nbsp; &nbsp; &nbsp; &nbsp;: Variable<br />
Bit rate &nbsp; &nbsp; &nbsp; &nbsp; &nbsp; &nbsp; &nbsp; &nbsp; &nbsp; &nbsp; &nbsp; &nbsp; &nbsp; &nbsp; &nbsp; &nbsp; : 7 478 kb/s<br />
Maximum bit rate &nbsp; &nbsp; &nbsp; &nbsp; &nbsp; &nbsp; &nbsp; &nbsp; &nbsp; &nbsp; &nbsp; &nbsp; : 15.0 Mb/s<br />
Width &nbsp; &nbsp; &nbsp; &nbsp; &nbsp; &nbsp; &nbsp; &nbsp; &nbsp; &nbsp; &nbsp; &nbsp; &nbsp; &nbsp; &nbsp; &nbsp; &nbsp; &nbsp;: 1 920 pixels<br />
Height &nbsp; &nbsp; &nbsp; &nbsp; &nbsp; &nbsp; &nbsp; &nbsp; &nbsp; &nbsp; &nbsp; &nbsp; &nbsp; &nbsp; &nbsp; &nbsp; &nbsp; : 1 080 pixels<br />
Display aspect ratio &nbsp; &nbsp; &nbsp; &nbsp; &nbsp; &nbsp; &nbsp; &nbsp; &nbsp; &nbsp; : 16:9<br />
Frame rate mode &nbsp; &nbsp; &nbsp; &nbsp; &nbsp; &nbsp; &nbsp; &nbsp; &nbsp; &nbsp; &nbsp; &nbsp; &nbsp;: Constant<br />
Frame rate &nbsp; &nbsp; &nbsp; &nbsp; &nbsp; &nbsp; &nbsp; &nbsp; &nbsp; &nbsp; &nbsp; &nbsp; &nbsp; &nbsp; &nbsp; : 23.976 (24000/1001) FPS<br />
Color space &nbsp; &nbsp; &nbsp; &nbsp; &nbsp; &nbsp; &nbsp; &nbsp; &nbsp; &nbsp; &nbsp; &nbsp; &nbsp; &nbsp; &nbsp;: YUV<br />
Chroma subsampling &nbsp; &nbsp; &nbsp; &nbsp; &nbsp; &nbsp; &nbsp; &nbsp; &nbsp; &nbsp; &nbsp; : 4:2:0<br />
Bit depth &nbsp; &nbsp; &nbsp; &nbsp; &nbsp; &nbsp; &nbsp; &nbsp; &nbsp; &nbsp; &nbsp; &nbsp; &nbsp; &nbsp; &nbsp; &nbsp;: 8 bits<br />
Scan type &nbsp; &nbsp; &nbsp; &nbsp; &nbsp; &nbsp; &nbsp; &nbsp; &nbsp; &nbsp; &nbsp; &nbsp; &nbsp; &nbsp; &nbsp; &nbsp;: Progressive<br />
Bits/(Pixel*Frame) &nbsp; &nbsp; &nbsp; &nbsp; &nbsp; &nbsp; &nbsp; &nbsp; &nbsp; &nbsp; &nbsp; : 0.150<br />
Stream size &nbsp; &nbsp; &nbsp; &nbsp; &nbsp; &nbsp; &nbsp; &nbsp; &nbsp; &nbsp; &nbsp; &nbsp; &nbsp; &nbsp; &nbsp;: 4.84 GiB (97%)<br />
Default &nbsp; &nbsp; &nbsp; &nbsp; &nbsp; &nbsp; &nbsp; &nbsp; &nbsp; &nbsp; &nbsp; &nbsp; &nbsp; &nbsp; &nbsp; &nbsp; &nbsp;: Yes<br />
Forced &nbsp; &nbsp; &nbsp; &nbsp; &nbsp; &nbsp; &nbsp; &nbsp; &nbsp; &nbsp; &nbsp; &nbsp; &nbsp; &nbsp; &nbsp; &nbsp; &nbsp; : No<br />
Color range &nbsp; &nbsp; &nbsp; &nbsp; &nbsp; &nbsp; &nbsp; &nbsp; &nbsp; &nbsp; &nbsp; &nbsp; &nbsp; &nbsp; &nbsp;: Limited<br />
Color primaries &nbsp; &nbsp; &nbsp; &nbsp; &nbsp; &nbsp; &nbsp; &nbsp; &nbsp; &nbsp; &nbsp; &nbsp; &nbsp;: BT.709<br />
Transfer characteristics &nbsp; &nbsp; &nbsp; &nbsp; &nbsp; &nbsp; &nbsp; &nbsp; : BT.709<br />
Matrix coefficients &nbsp; &nbsp; &nbsp; &nbsp; &nbsp; &nbsp; &nbsp; &nbsp; &nbsp; &nbsp; &nbsp;: BT.709<br />
<br />
Audio<br />
ID &nbsp; &nbsp; &nbsp; &nbsp; &nbsp; &nbsp; &nbsp; &nbsp; &nbsp; &nbsp; &nbsp; &nbsp; &nbsp; &nbsp; &nbsp; &nbsp; &nbsp; &nbsp; &nbsp; : 2<br />
Format &nbsp; &nbsp; &nbsp; &nbsp; &nbsp; &nbsp; &nbsp; &nbsp; &nbsp; &nbsp; &nbsp; &nbsp; &nbsp; &nbsp; &nbsp; &nbsp; &nbsp; : E-AC-3<br />
Format/Info &nbsp; &nbsp; &nbsp; &nbsp; &nbsp; &nbsp; &nbsp; &nbsp; &nbsp; &nbsp; &nbsp; &nbsp; &nbsp; &nbsp; &nbsp;: Enhanced Audio Coding 3<br />
Format settings, Endianness &nbsp; &nbsp; &nbsp; &nbsp; &nbsp; &nbsp; &nbsp;: Big<br />
Codec ID &nbsp; &nbsp; &nbsp; &nbsp; &nbsp; &nbsp; &nbsp; &nbsp; &nbsp; &nbsp; &nbsp; &nbsp; &nbsp; &nbsp; &nbsp; &nbsp; : A_EAC3<br />
Duration &nbsp; &nbsp; &nbsp; &nbsp; &nbsp; &nbsp; &nbsp; &nbsp; &nbsp; &nbsp; &nbsp; &nbsp; &nbsp; &nbsp; &nbsp; &nbsp; : 1 h 32 min<br />
Bit rate mode &nbsp; &nbsp; &nbsp; &nbsp; &nbsp; &nbsp; &nbsp; &nbsp; &nbsp; &nbsp; &nbsp; &nbsp; &nbsp; &nbsp;: Constant<br />
Bit rate &nbsp; &nbsp; &nbsp; &nbsp; &nbsp; &nbsp; &nbsp; &nbsp; &nbsp; &nbsp; &nbsp; &nbsp; &nbsp; &nbsp; &nbsp; &nbsp; : 224 kb/s<br />
Channel(s) &nbsp; &nbsp; &nbsp; &nbsp; &nbsp; &nbsp; &nbsp; &nbsp; &nbsp; &nbsp; &nbsp; &nbsp; &nbsp; &nbsp; &nbsp; : 2 channels<br />
Channel positions &nbsp; &nbsp; &nbsp; &nbsp; &nbsp; &nbsp; &nbsp; &nbsp; &nbsp; &nbsp; &nbsp; &nbsp;: Front: L R<br />
Sampling rate &nbsp; &nbsp; &nbsp; &nbsp; &nbsp; &nbsp; &nbsp; &nbsp; &nbsp; &nbsp; &nbsp; &nbsp; &nbsp; &nbsp;: 48.0 kHz<br />
Frame rate &nbsp; &nbsp; &nbsp; &nbsp; &nbsp; &nbsp; &nbsp; &nbsp; &nbsp; &nbsp; &nbsp; &nbsp; &nbsp; &nbsp; &nbsp; : 187.500 FPS (256 SPF)<br />
Compression mode &nbsp; &nbsp; &nbsp; &nbsp; &nbsp; &nbsp; &nbsp; &nbsp; &nbsp; &nbsp; &nbsp; &nbsp; : Lossy<br />
Stream size &nbsp; &nbsp; &nbsp; &nbsp; &nbsp; &nbsp; &nbsp; &nbsp; &nbsp; &nbsp; &nbsp; &nbsp; &nbsp; &nbsp; &nbsp;: 149 MiB (3%)<br />
Language &nbsp; &nbsp; &nbsp; &nbsp; &nbsp; &nbsp; &nbsp; &nbsp; &nbsp; &nbsp; &nbsp; &nbsp; &nbsp; &nbsp; &nbsp; &nbsp; : English<br />
Service kind &nbsp; &nbsp; &nbsp; &nbsp; &nbsp; &nbsp; &nbsp; &nbsp; &nbsp; &nbsp; &nbsp; &nbsp; &nbsp; &nbsp; : Complete Main<br />
Default &nbsp; &nbsp; &nbsp; &nbsp; &nbsp; &nbsp; &nbsp; &nbsp; &nbsp; &nbsp; &nbsp; &nbsp; &nbsp; &nbsp; &nbsp; &nbsp; &nbsp;: Yes<br />
Forced &nbsp; &nbsp; &nbsp; &nbsp; &nbsp; &nbsp; &nbsp; &nbsp; &nbsp; &nbsp; &nbsp; &nbsp; &nbsp; &nbsp; &nbsp; &nbsp; &nbsp; : No<br />
<br />
Text<br />
ID &nbsp; &nbsp; &nbsp; &nbsp; &nbsp; &nbsp; &nbsp; &nbsp; &nbsp; &nbsp; &nbsp; &nbsp; &nbsp; &nbsp; &nbsp; &nbsp; &nbsp; &nbsp; &nbsp; : 3<br />
Format &nbsp; &nbsp; &nbsp; &nbsp; &nbsp; &nbsp; &nbsp; &nbsp; &nbsp; &nbsp; &nbsp; &nbsp; &nbsp; &nbsp; &nbsp; &nbsp; &nbsp; : UTF-8<br />
Codec ID &nbsp; &nbsp; &nbsp; &nbsp; &nbsp; &nbsp; &nbsp; &nbsp; &nbsp; &nbsp; &nbsp; &nbsp; &nbsp; &nbsp; &nbsp; &nbsp; : S_TEXT/UTF8<br />
Codec ID/Info &nbsp; &nbsp; &nbsp; &nbsp; &nbsp; &nbsp; &nbsp; &nbsp; &nbsp; &nbsp; &nbsp; &nbsp; &nbsp; &nbsp;: UTF-8 Plain Text<br />
Duration &nbsp; &nbsp; &nbsp; &nbsp; &nbsp; &nbsp; &nbsp; &nbsp; &nbsp; &nbsp; &nbsp; &nbsp; &nbsp; &nbsp; &nbsp; &nbsp; : 1 h 32 min<br />
Bit rate &nbsp; &nbsp; &nbsp; &nbsp; &nbsp; &nbsp; &nbsp; &nbsp; &nbsp; &nbsp; &nbsp; &nbsp; &nbsp; &nbsp; &nbsp; &nbsp; : 55 b/s<br />
Count of elements &nbsp; &nbsp; &nbsp; &nbsp; &nbsp; &nbsp; &nbsp; &nbsp; &nbsp; &nbsp; &nbsp; &nbsp;: 1368<br />
Stream size &nbsp; &nbsp; &nbsp; &nbsp; &nbsp; &nbsp; &nbsp; &nbsp; &nbsp; &nbsp; &nbsp; &nbsp; &nbsp; &nbsp; &nbsp;: 37.8 KiB (0%)<br />
Title &nbsp; &nbsp; &nbsp; &nbsp; &nbsp; &nbsp; &nbsp; &nbsp; &nbsp; &nbsp; &nbsp; &nbsp; &nbsp; &nbsp; &nbsp; &nbsp; &nbsp; &nbsp;: SDH<br />
Language &nbsp; &nbsp; &nbsp; &nbsp; &nbsp; &nbsp; &nbsp; &nbsp; &nbsp; &nbsp; &nbsp; &nbsp; &nbsp; &nbsp; &nbsp; &nbsp; : English<br />
Default &nbsp; &nbsp; &nbsp; &nbsp; &nbsp; &nbsp; &nbsp; &nbsp; &nbsp; &nbsp; &nbsp; &nbsp; &nbsp; &nbsp; &nbsp; &nbsp; &nbsp;: No<br />
Forced &nbsp; &nbsp; &nbsp; &nbsp; &nbsp; &nbsp; &nbsp; &nbsp; &nbsp; &nbsp; &nbsp; &nbsp; &nbsp; &nbsp; &nbsp; &nbsp; &nbsp; : No</fieldset><br><br />
]]></description>
			<author>anonymous@pt.sjtu.edu.cn (anonymous)</author>
			<category domain="https://pt.sjtu.edu.cn/torrents.php?cat=410">欧美电视剧</category>
			<comments><![CDATA[https://pt.sjtu.edu.cn/details.php?id=154320&cmtpage=0#startcomments]]></comments>
			<guid isPermaLink="false">90013b217cbffc1fcb02885176d19493ea0e95ea</guid>
			<pubDate>Fri, 10 Aug 2018 16:02:05 +0800</pubDate>
		</item>
		<item>
			<title><![CDATA[[的士速递2] Taxi 2 2000 1080p BluRay DTS x264-SbR[11.45 GB]]]></title>
			<link>https://pt.sjtu.edu.cn/details.php?id=154319</link>
			<description><![CDATA[<img alt="image" src="https://img3.doubanio.com/view/photo/l_ratio_poster/public/p1339506474.jpg" /><br />
<br />
◎译　　名　的士速递2 / 的士速逮 2 / 终极杀阵 2<br />
◎片　　名　Taxi 2<br />
◎年　　代　2000<br />
◎产　　地　法国<br />
◎类　　别　喜剧 / 动作 / 犯罪<br />
◎语　　言　法语 / 日语 / 德语<br />
◎上映日期　2000-03-29<br />
◎IMDb评分　6.5/10 from 45607 users<br />
◎IMDb链接　<a class="faqlink" href="http://www.imdb.com/title/tt0183869">http://www.imdb.com/title/tt0183869</a><br />
◎豆瓣评分　7.8/10 from 32524 users<br />
◎豆瓣链接　<a class="faqlink" href="https://movie.douban.com/subject/1302271/">https://movie.douban.com/subject/1302271/</a><br />
◎片　　长　88 分钟<br />
◎导　　演　Gérard Krawczyk<br />
◎编　　剧　Luc Besson<br />
◎主　　演　Samy Naceri<br />
　　　　　　Frédéric Diefenthal<br />
　　　　　　Marion Cotillard<br />
　　　　　　Emma Wiklund<br />
<br />
<br />
◎标　　签　法国 | 喜剧 | 吕克·贝松 | 动作 | 法国电影 | 搞笑 | TAXI | 2000<br />
<br />
◎简　　介 &nbsp;<br />
<br />
　　魔鬼出租车司机达尼埃尔（萨米·纳塞利 Samy Naceri 饰）依旧每天在公路上风驰电掣，这天他因为开车运送临产孕妇而一举夺得赛车冠军，同时也耽搁了和女友莉莉（玛丽昂·歌迪亚 Marion Cotillard 饰）父母见面的约会，但达尼埃尔很快用速度帮助了接见日本防卫部长的未来将军岳父。与此同时，考驾照再次失败的埃米利安（佛瑞德瑞克·迪分索 Frédéric Diefenthal 饰）奉命一同迎接日本部长，与达尼埃尔在机场重逢。警察局长在车队行进途中安排了反恐演习向日本客人展示法国的先进技术和干练部队，而暗处的一股日本黑帮正计划劫持部长。达尼埃尔和埃米利安联手为国家尊严而战……<br />
<fieldset><legend> 引用 </legend><br />
General<br />
Unique ID : 223792730019362758101401120608515299661 (0xA85CE9795BFAD4CB9FC89E3910D8994D)<br />
Complete name : Taxi.2.2000.1080p.BluRay.DTS.x264-SbR.mkv<br />
Format : Matroska<br />
Format version : Version 4 / Version 2<br />
File size : 11.4 GiB<br />
Duration : 1h 28mn<br />
Overall bit rate : 18.5 Mbps<br />
Movie name : Taxi 2 (2000) - Release for HDBITS by SbR<br />
Encoded date : UTC 2014-08-15 05:29:19<br />
Writing application : mkvmerge v7.1.0 ('Good Love') 64bit built on Jul 27 2014 13:06:55<br />
Writing library : libebml v1.3.0 + libmatroska v1.4.1<br />
Cover : Yes<br />
DURATION : 01:21:18.580000000<br />
NUMBER_OF_FRAMES : 997<br />
NUMBER_OF_BYTES : 38954<br />
_STATISTICS_WRITING_APP : mkvmerge v7.1.0 ('Good Love') 64bit built on Jul 27 2014 13:06:55<br />
_STATISTICS_WRITING_DATE_UTC : 2014-08-15 05:29:19<br />
_STATISTICS_TAGS : BPS DURATION NUMBER_OF_FRAMES NUMBER_OF_BYTES<br />
Attachment : Yes<br />
<br />
Video<br />
ID : 1<br />
Format : AVC<br />
Format/Info : Advanced Video Codec<br />
Format profile : High@L4.1<br />
Format settings, CABAC : Yes<br />
Format settings, ReFrames : 5 frames<br />
Codec ID : V_MPEG4/ISO/AVC<br />
Duration : 1h 28mn<br />
Bit rate : 16.7 Mbps<br />
Width : 1 916 pixels<br />
Height : 816 pixels<br />
Display aspect ratio : 2.35:1<br />
Frame rate mode : Constant<br />
Frame rate : 24.000 fps<br />
Color space : YUV<br />
Chroma subsampling : 4:2:0<br />
Bit depth : 8 bits<br />
Scan type : Progressive<br />
Bits/(Pixel*Frame) : 0.444<br />
Stream size : 10.3 GiB (90%)<br />
Title : Release for HDBITS<br />
Writing library : x264 core 142 r2431+42 c69a006 tMod [8-bit@4:2:0 X86_64]<br />
Encoding settings : cabac=1 / ref=5 / deblock=1:-2:-2 / analyse=0x3:0x133 / me=umh / subme=11 / psy=1 / fade_compensate=0.00 / psy_rd=1.00:0.00 / mixed_ref=1 / me_range=32 / chroma_me=1 / trellis=2 / 8x8dct=1 / cqm=0 / deadzone=21,11 / fast_pskip=1 / chroma_qp_offset=-2 / threads=12 / lookahead_threads=2 / sliced_threads=0 / nr=0 / decimate=1 / interlaced=0 / bluray_compat=0 / constrained_intra=0 / fgo=0 / bframes=8 / b_pyramid=2 / b_adapt=2 / b_bias=0 / direct=1 / weightb=1 / open_gop=0 / weightp=2 / keyint=250 / keyint_min=24 / scenecut=40 / intra_refresh=0 / rc_lookahead=60 / rc=crf / mbtree=0 / crf=18.5000 / qcomp=0.60 / qpmin=0:0:0 / qpmax=69:69:69 / qpstep=4 / vbv_maxrate=62500 / vbv_bufsize=78125 / crf_max=0.0 / nal_hrd=none / filler=0 / ip_ratio=1.40 / pb_ratio=1.30 / aq=4:0.80 / aq-sensitivity=11.00 / aq-factor=1.00:1.00:1.00 / aq2=1:0.60 / aq2-sensitivity=9.00 / aq2-factor=1.00:1.00:1.00 / aq3=1:[0.60:0.60]:[0.60:0.60]:[0.60:0.60]:[0.60:0.60] / aq3-sensitivity=10.00 / aq3-factor=[1.00:1.00]:[1.00:1.00]:[1.00:1.00] / aq3-boundary=192:64:24<br />
Language : French<br />
Default : Yes<br />
Forced : No<br />
Color primaries : BT.709<br />
Transfer characteristics : BT.709<br />
Matrix coefficients : BT.709<br />
<br />
Audio<br />
ID : 2<br />
Format : DTS<br />
Format/Info : Digital Theater Systems<br />
Mode : 16<br />
Format settings, Endianness : Big<br />
Codec ID : A_DTS<br />
Duration : 1h 28mn<br />
Bit rate mode : Constant<br />
Bit rate : 1 509 Kbps<br />
Channel(s) : 6 channels<br />
Channel positions : Front: L C R, Side: L R, LFE<br />
Sampling rate : 48.0 KHz<br />
Bit depth : 16 bits<br />
Compression mode : Lossy<br />
Stream size : 954 MiB (8%)<br />
Language : French<br />
Default : Yes<br />
Forced : No<br />
<br />
Text #1<br />
ID : 3<br />
Format : UTF-8<br />
Codec ID : S_TEXT/UTF8<br />
Codec ID/Info : UTF-8 Plain Text<br />
Language : English<br />
Default : Yes<br />
Forced : No<br />
<br />
Text #2<br />
ID : 4<br />
Format : UTF-8<br />
Codec ID : S_TEXT/UTF8<br />
Codec ID/Info : UTF-8 Plain Text<br />
Language : Russian<br />
Default : No<br />
Forced : No<br />
<br />
Menu<br />
00:00:00.000 : en:Chapter 1<br />
00:07:29.750 : en:Chapter 2<br />
00:14:43.500 : en:Chapter 3<br />
00:23:18.416 : en:Chapter 4<br />
00:31:25.333 : en:Chapter 5<br />
00:39:41.000 : en:Chapter 6<br />
00:46:52.791 : en:Chapter 7<br />
00:54:17.083 : en:Chapter 8<br />
01:01:14.125 : en:Chapter 9<br />
01:08:10.333 : en:Chapter 10<br />
01:15:46.083 : en:Chapter 11<br />
01:23:34.125 : en:Chapter 12<br />
</fieldset><br><br />
]]></description>
			<author>anonymous@pt.sjtu.edu.cn (anonymous)</author>
			<category domain="https://pt.sjtu.edu.cn/torrents.php?cat=402">欧美电影</category>
			<comments><![CDATA[https://pt.sjtu.edu.cn/details.php?id=154319&cmtpage=0#startcomments]]></comments>
			<guid isPermaLink="false">3a94867e05059e64e60678ab4bb9e06ddf4df51a</guid>
			<pubDate>Fri, 10 Aug 2018 14:27:41 +0800</pubDate>
		</item>
		<item>
			<title><![CDATA[[黄石 第一季 第7集] Yellowstone 2018 S01E07 A Monster Is Among Us 720p AMZN WEB-DL DDP2 0 H 264-NTb[744.28 MB]]]></title>
			<link>https://pt.sjtu.edu.cn/details.php?id=154317</link>
			<description><![CDATA[<img alt="image" src="https://i.loli.net/2018/08/03/5b63c3cf71112.jpg" /><br />
<br />
◎译　　名　黄石 第一季/黄石公园/黄石之争<br />
◎片　　名　Yellowstone Season 1<br />
◎年　　代　2018<br />
◎产　　地　美国<br />
◎类　　别　剧情/西部<br />
◎语　　言　英语<br />
◎上映日期　2018-06-20(美国)<br />
◎IMDb评分 &nbsp;8.4/10 from 3,621 users<br />
◎IMDb链接 &nbsp;<a class="faqlink" href="http://www.imdb.com/title/tt4236770/">http://www.imdb.com/title/tt4236770/</a><br />
◎豆瓣评分　9.0/10 from 2,084 users<br />
◎豆瓣链接　<a class="faqlink" href="https://movie.douban.com/subject/27036727/">https://movie.douban.com/subject/27036727/</a><br />
◎集　　数　10<br />
◎片　　长　60分钟<br />
◎导　　演　泰勒·谢里丹 Taylor Sheridan<br />
◎主　　演　凯文·科斯特纳 Kevin Costner<br />
　　　　　　凯尔西·周 &nbsp;Kelsey Chow<br />
　　　　　　韦斯·本特利 Wes Bentley<br />
　　　　　　吉尔·伯明翰 Gil Birmingham<br />
　　　　　　伊恩·鲍汉 Ian Bohen<br />
　　　　　　卢克·葛莱姆斯 Luke Grimes<br />
　　　　　　科尔·豪瑟 Cole Hauser<br />
　　　　　　凯利·蕾莉 Kelly Reilly<br />
　　　　　　丹宁 理查兹 Denim Richards<br />
　　　　　　戴夫·安纳布尔 Dave Annable<br />
　　　　　　吉尔·亨内斯 Jill Hennessy<br />
　　　　　　格瑞辰·摩尔 Gretchen Mol<br />
　　　　　　帕特里克·圣埃斯普利特 Patrick St. Esprit<br />
　　　　　　杰佛逊·豪尔 Jefferson Hall<br />
　　　　　　托卡拉·克利福德 Tokala Clifford<br />
　　　　　　丹尼·赫斯顿 Danny Huston<br />
　　　　　　温迪·莫尼兹 Wendy Moniz<br />
<br />
◎简　　介<br />
<br />
　　约翰·达顿是达顿家族的一家之长，坐拥着美国最大的牧场，与牧场毗邻的有美国首个国家公园、印第安人保留地以及土地开发商买下的地皮。在一次因牲畜误入印第安人保留地引起的争端中，不幸的意外伤亡事件发生，一场涉及多方的争端在蒙大拿州这片美丽的土地上拉开了序幕。<br />
<br />
<fieldset><legend> 引用 </legend><font face='Courier New'>File Name &nbsp; &nbsp; &nbsp; &nbsp; : Yellowstone.2018.S01E07.A.Monster.Is.Among.Us.720p.AMZN.WEB-DL.DDP2.0.H.264-NTb<br />
Format &nbsp; &nbsp; &nbsp; &nbsp; &nbsp; &nbsp;: Matroska<br />
File Size &nbsp; &nbsp; &nbsp; &nbsp; : 744 MiB<br />
Duration &nbsp; &nbsp; &nbsp; &nbsp; &nbsp;: 48 min<br />
Video Codec &nbsp; &nbsp; &nbsp; : AVC High@L3.1 @ 1 908 kb/s<br />
Framerate &nbsp; &nbsp; &nbsp; &nbsp; : 23.976 fps<br />
Resolution &nbsp; &nbsp; &nbsp; &nbsp;: 1280x720<br />
Audio &nbsp; &nbsp; &nbsp; &nbsp; &nbsp; &nbsp; : E-AC-3 2 channels @ 224 kb/s<br />
<br />
</font></fieldset><br><br />
]]></description>
			<author>anonymous@pt.sjtu.edu.cn (anonymous)</author>
			<category domain="https://pt.sjtu.edu.cn/torrents.php?cat=410">欧美电视剧</category>
			<comments><![CDATA[https://pt.sjtu.edu.cn/details.php?id=154317&cmtpage=0#startcomments]]></comments>
			<guid isPermaLink="false">0f1ad2a077ddc8820eba9dcd7e91b82fa2825577</guid>
			<pubDate>Fri, 10 Aug 2018 13:15:24 +0800</pubDate>
		</item>
		<item>
			<title><![CDATA[[纯洁心灵·逐梦演艺] Pure Hearts Into Chinese Showbiz 2018 WEB-DL 1080p H264 AAC-PuTao[1.43 GB]]]></title>
			<link>https://pt.sjtu.edu.cn/details.php?id=154314</link>
			<description><![CDATA[<fieldset><legend> 引用 </legend><font size='4'><span style='color: red;'><b><font face='Microsoft YaHei'>葡萄原创作品，禁止转载，谢谢合作！<br />
</font></span></b></font></fieldset><br><br />
<br />
<img alt="image" src="https://pt.sjtu.edu.cn/picbucket/106387_153386386148.jpg" /><br />
◎译　　名　青春闪闪·逐梦表演系<br />
◎片　　名　纯洁心灵·逐梦演艺圈<br />
◎年　　代　2015<br />
◎产　　地　中国大陆<br />
◎类　　别　剧情/喜剧<br />
◎语　　言　汉语普通话<br />
◎上映日期　2015-12-10(旧金山环球国际电影节)/2017-09-22(中国大陆)/2018-02-09(中国大陆重映)<br />
◎IMDb评分 &nbsp;1.0/10 from 366 users<br />
◎IMDb链接 &nbsp;<a class="faqlink" href="http://www.imdb.com/title/tt4986830/">http://www.imdb.com/title/tt4986830/</a><br />
◎豆瓣评分　2.1/10 from 59,642 users<br />
◎豆瓣链接　<a class="faqlink" href="https://movie.douban.com/subject/26322774/">https://movie.douban.com/subject/26322774/</a><br />
◎片　　长　98分钟<br />
◎导　　演　毕志飞 Zhifei Bi<br />
◎主　　演　朱哲健 Zhejian Zhu<br />
　　　　　　李彦漫 Yanman Li<br />
　　　　　　陈思瀚 Sihan Chen<br />
　　　　　　张芷榕 Zhirong Zhang<br />
　　　　　　毕志飞 Zhifei Bi<br />
　　　　　　蒋龙 Long Jiang<br />
　　　　　　薛皓 Hao Xue<br />
　　　　　　王渊慧 Yuanhui Wang<br />
　　　　　　辛祚宇 Zuoyu Xin<br />
　　　　　　兰海隆 Hailong Lan<br />
　　　　　　姜珮瑶 Peiyao Jiang<br />
　　　　　　郭庭 Ting Guo<br />
　　　　　　王笑一 Xiaoyi Wang<br />
　　　　　　马瑜遥 Yuyao Ma<br />
　　　　　　张琳然 Linran Zhang<br />
　　　　　　刘子铭 Ziming Liu<br />
　　　　　　王曲浩然 Haoran Wangqu<br />
　　　　　　杨佳佳 Jiajia Yang<br />
　　　　　　刘玲钰 Lingyu Liu<br />
<br />
◎简　　介<br />
<br />
　　海亚影视学院（虚构）近些年已经跻身国内著名影视院校的行列，其表演系2013级本科班，学生形象、艺术条件都格外突出，从入校伊始就备受学校师生关注，被誉为“准明星班”。班主任文天阳年青英俊，刚刚硕士毕业留校，认真负责。<br />
　　班里共有17名学生，8男9女，家庭背景、成长经历、性格各异：有的学生家里条件优越，有奢华海边别墅、游艇与跑车；有的学生是普通工薪阶层的子女；还有学生来自落后偏远山区的少数民族；还有学生是单亲家庭的问题子女……能在千军万马中成功杀出而考取表演专业，是备受人们关注的。他们是天之骄子，热情澎湃，都在自己最美好的青春年华，为自己的美好梦想奋斗着。<br />
　　演员是一个相对被动的职业，经常需要见组和推销自己，学习表演专业的学生也难免要比普通专业学生与社会有更多、更早的接触。城市中有着很多诱惑，影视圈也同样复杂，他们的青春美貌也吸引了形形色色的人士们的目光。文老师与自己的学生们在四年的历程中曾经沮丧过、伤心过甚至大痛过，但是青春这趟旅程，含着眼泪也要向前！他们决心闯入演艺圈并有所作为……<br />
<br />
<fieldset><legend> 引用 </legend><font face='Courier New'>General Information:<br />
RELEASE.NAME..........: Pure.Hearts.Into.Chinese.Showbiz.2018.WEB-DL.1080p.H264.AAC-PuTao<br />
DouBan.LiNK...........: <a class="faqlink" href="https://movie.douban.com/subject/26322774/">https://movie.douban.com/subject/26322774/</a><br />
DouBan.RATiNG.........: 2.1/10 from 59,642 users<br />
RUNTiME...............: ~98min<br />
RELEASE.SiZE..........: 1.43 GiB<br />
RELEASE.DATE..........: 2018.08.10<br />
ViDEO.BiTRATE.........: x264 L4 @ ~2000 Kbps<br />
FRAMERATE.............: 25 fps<br />
RESOLUTiON............: 1920x806<br />
AUDiO.................: Chinese AAC 2.0 @ 128 Kbps<br />
SUBTiTLE..............: Chs<br />
UPLOADER..............: @PuTao</font></fieldset><br>]]></description>
			<author>anonymous@pt.sjtu.edu.cn (anonymous)</author>
			<category domain="https://pt.sjtu.edu.cn/torrents.php?cat=401">华语电影</category>
			<comments><![CDATA[https://pt.sjtu.edu.cn/details.php?id=154314&cmtpage=0#startcomments]]></comments>
			<guid isPermaLink="false">e8588b86cc345d01d537d4f3f34dbedba5192468</guid>
			<pubDate>Fri, 10 Aug 2018 09:24:23 +0800</pubDate>
		</item>
	</channel>
</rss>